<svg xmlns="http://www.w3.org/2000/svg" width="190.6" height="52.65" viewBox="0 0 190.6 52.65"><title>logo_syndesmos</title><path d="M70.25,16a10.79,10.79,0,0,1,1.41.12,7.89,7.89,0,0,1,1.69.42,4.57,4.57,0,0,1,1.41.79,1.58,1.58,0,0,1,.58,1.27,2.11,2.11,0,0,1-.47,1.34,1.53,1.53,0,0,1-1.27.58,2.52,2.52,0,0,1-.77-.11c-.25-.08-.51-.17-.78-.28a8.51,8.51,0,0,0-.85-.27,4.23,4.23,0,0,0-1-.11,2.64,2.64,0,0,0-1.48.42A1.41,1.41,0,0,0,68,21.4a1.14,1.14,0,0,0,.63,1,7.73,7.73,0,0,0,1.61.67l2.09.63a8.46,8.46,0,0,1,2.09,1,5.32,5.32,0,0,1,1.62,1.65,5.17,5.17,0,0,1,.63,2.72,5.62,5.62,0,0,1-2,4.41,6.49,6.49,0,0,1-2.12,1.2,8,8,0,0,1-2.56.41c-.5,0-1.11,0-1.83-.11a11,11,0,0,1-2.08-.43,5.16,5.16,0,0,1-1.7-.88,1.84,1.84,0,0,1-.7-1.49,1.87,1.87,0,0,1,.47-1.29,1.56,1.56,0,0,1,1.27-.55,3,3,0,0,1,1,.16l1,.34c.36.14.75.25,1.14.36a5,5,0,0,0,1.22.15,2.78,2.78,0,0,0,2-.63,2.14,2.14,0,0,0,.66-1.6,1.36,1.36,0,0,0-.63-1.2,6.75,6.75,0,0,0-1.61-.71c-.65-.2-1.35-.4-2.09-.61a9.26,9.26,0,0,1-2.1-.86,4.87,4.87,0,0,1-1.61-1.45,4.18,4.18,0,0,1-.63-2.42,5.63,5.63,0,0,1,.52-2.47,5.43,5.43,0,0,1,1.4-1.84,6.56,6.56,0,0,1,2-1.17A7.24,7.24,0,0,1,70.25,16" fill="#231f20"/><path d="M77.21,23.38c0-.14-.09-.29-.13-.44a2.78,2.78,0,0,1,0-.52,1.17,1.17,0,0,1,.17-.65,1.88,1.88,0,0,1,.43-.51,1.84,1.84,0,0,1,.57-.34,1.63,1.63,0,0,1,.6-.11,1.85,1.85,0,0,1,1.15.35,2.11,2.11,0,0,1,.72,1l2.57,7,2.75-7a2.11,2.11,0,0,1,.72-1,1.85,1.85,0,0,1,1.15-.35,1.66,1.66,0,0,1,.6.11,1.84,1.84,0,0,1,.57.34,2.08,2.08,0,0,1,.43.51,1.26,1.26,0,0,1,.17.65,2.16,2.16,0,0,1-.18,1L83.19,39a3.05,3.05,0,0,1-.67,1,1.43,1.43,0,0,1-1.1.44,1.91,1.91,0,0,1-1.45-.5,1.58,1.58,0,0,1-.5-1.11,2,2,0,0,1,.07-.55,3.38,3.38,0,0,1,.17-.54l1.63-4.05Z" fill="#231f20"/><path d="M90.54,22.88a2.12,2.12,0,0,1,.52-1.5,1.72,1.72,0,0,1,1.35-.57,1.82,1.82,0,0,1,1.17.36,1.59,1.59,0,0,1,.54,1A3.46,3.46,0,0,1,95.54,21a5.37,5.37,0,0,1,2.19-.39,5.9,5.9,0,0,1,2,.34,4.36,4.36,0,0,1,1.63,1,4.62,4.62,0,0,1,1.06,1.58,5.47,5.47,0,0,1,.39,2.13v7.17a2.15,2.15,0,0,1-.52,1.51,1.88,1.88,0,0,1-2.7,0,2.15,2.15,0,0,1-.52-1.51V26.34a2.46,2.46,0,0,0-.72-1.95,2.49,2.49,0,0,0-1.72-.62,2.15,2.15,0,0,0-1.78.74,2.75,2.75,0,0,0-.61,1.83v6.52a2.2,2.2,0,0,1-.52,1.51,1.75,1.75,0,0,1-1.35.57,1.72,1.72,0,0,1-1.35-.57,2.15,2.15,0,0,1-.52-1.51Z" fill="#231f20"/><path d="M113.92,27.77h0a4.72,4.72,0,0,0-.19-1.34,3.86,3.86,0,0,0-.54-1.18,3,3,0,0,0-.91-.85,2.56,2.56,0,0,0-1.3-.32,2.33,2.33,0,0,0-1.27.35,2.9,2.9,0,0,0-.91.9,4.1,4.1,0,0,0-.55,1.22,5.22,5.22,0,0,0-.18,1.35,5.11,5.11,0,0,0,.18,1.32,4.1,4.1,0,0,0,.55,1.22,2.86,2.86,0,0,0,.91.89,2.4,2.4,0,0,0,1.27.33,2.38,2.38,0,0,0,1.33-.35,3,3,0,0,0,.91-.91,4,4,0,0,0,.53-1.25,6.06,6.06,0,0,0,.17-1.38m3.74,5.09a2.2,2.2,0,0,1-.52,1.51,1.75,1.75,0,0,1-1.35.57,1.77,1.77,0,0,1-1.87-1.56,3.27,3.27,0,0,1-1.5,1.29,4.84,4.84,0,0,1-1.93.42,5.51,5.51,0,0,1-2.55-.59,6.15,6.15,0,0,1-2-1.6,7.61,7.61,0,0,1-1.23-2.26,7.86,7.86,0,0,1-.43-2.59,9.89,9.89,0,0,1,.38-2.7A7.27,7.27,0,0,1,105.84,23a6,6,0,0,1,1.88-1.69,5.22,5.22,0,0,1,2.64-.65,5.34,5.34,0,0,1,3.56,1.3V16.86a2.13,2.13,0,0,1,.52-1.51,1.72,1.72,0,0,1,1.35-.57,1.75,1.75,0,0,1,1.35.57,2.18,2.18,0,0,1,.52,1.51Z" fill="#231f20"/><path d="M128.57,26.63h0a3.62,3.62,0,0,0-.91-2.06,2.73,2.73,0,0,0-2.08-.8,2.68,2.68,0,0,0-2,.83,3.32,3.32,0,0,0-.92,2Zm-5.87,2.49a2.78,2.78,0,0,0,1.2,2.05,4.23,4.23,0,0,0,2.33.65,3.89,3.89,0,0,0,1.34-.23,10.72,10.72,0,0,0,1.13-.52c.34-.19.66-.37,1-.52a1.69,1.69,0,0,1,.8-.24,1.42,1.42,0,0,1,1.07.51,1.62,1.62,0,0,1,.47,1.1,1.69,1.69,0,0,1-.56,1.17,5.76,5.76,0,0,1-1.44,1,9.92,9.92,0,0,1-2,.71,8.72,8.72,0,0,1-2.14.27,7.34,7.34,0,0,1-2.87-.54A6.73,6.73,0,0,1,120.81,33a6.9,6.9,0,0,1-1.43-2.27,8.08,8.08,0,0,1-.5-2.87,7.68,7.68,0,0,1,.49-2.74,7.24,7.24,0,0,1,1.38-2.31,6.67,6.67,0,0,1,2.11-1.6,6.48,6.48,0,0,1,5.49,0,7.28,7.28,0,0,1,3.48,3.81,6.4,6.4,0,0,1,.48,2.38,1.74,1.74,0,0,1-.39,1.24,1.64,1.64,0,0,1-1.25.42Z" fill="#231f20"/><path d="M142.93,23.35a1.74,1.74,0,0,1-.43,1.16,1.36,1.36,0,0,1-1.1.51,1.79,1.79,0,0,1-.65-.17l-.83-.38a9.35,9.35,0,0,0-.92-.38,2.93,2.93,0,0,0-.95-.17,1.64,1.64,0,0,0-.9.25.88.88,0,0,0-.37.79.86.86,0,0,0,.48.74,7.46,7.46,0,0,0,1.2.59l1.56.61a7.72,7.72,0,0,1,1.56.82,4.46,4.46,0,0,1,1.21,1.2,3.13,3.13,0,0,1,.48,1.78,4,4,0,0,1-1.45,3.13,5.45,5.45,0,0,1-1.68.93,6.83,6.83,0,0,1-2.2.33,7.72,7.72,0,0,1-1.7-.21,7.11,7.11,0,0,1-1.7-.59,4.75,4.75,0,0,1-1.3-.93,1.63,1.63,0,0,1-.52-1.15,1.46,1.46,0,0,1,.11-.49,1.89,1.89,0,0,1,.31-.55,2.11,2.11,0,0,1,.5-.44,1.31,1.31,0,0,1,.69-.18,2.35,2.35,0,0,1,1,.19c.28.13.56.28.84.44a5.93,5.93,0,0,0,.91.45,3.1,3.1,0,0,0,1.14.19,1.82,1.82,0,0,0,1.17-.27,1,1,0,0,0,.32-.79.87.87,0,0,0-.49-.72,7.5,7.5,0,0,0-1.2-.58l-1.56-.61a7.72,7.72,0,0,1-1.56-.82,4.39,4.39,0,0,1-1.21-1.22,3.21,3.21,0,0,1-.48-1.79,4.08,4.08,0,0,1,.38-1.78,4.15,4.15,0,0,1,1.05-1.38,4.72,4.72,0,0,1,1.6-.9,6.24,6.24,0,0,1,2-.31,7.85,7.85,0,0,1,1.52.17,6.76,6.76,0,0,1,1.52.49,3.87,3.87,0,0,1,1.16.83,1.69,1.69,0,0,1,.47,1.21" fill="#231f20"/><path d="M144.49,22.88a2.12,2.12,0,0,1,.52-1.5,1.75,1.75,0,0,1,1.35-.57,1.53,1.53,0,0,1,1.72,1.4,4.48,4.48,0,0,1,3.48-1.56,4.73,4.73,0,0,1,3.87,1.9,5.48,5.48,0,0,1,3.95-1.9,6.16,6.16,0,0,1,2.07.33,4.22,4.22,0,0,1,1.61,1,4.27,4.27,0,0,1,1.06,1.57,5.82,5.82,0,0,1,.37,2.18v7.17a2.15,2.15,0,0,1-.52,1.51,1.72,1.72,0,0,1-1.35.57,1.75,1.75,0,0,1-1.35-.57,2.15,2.15,0,0,1-.52-1.51V26.34a2.83,2.83,0,0,0-.58-1.87,2,2,0,0,0-1.6-.7,2,2,0,0,0-1.62.7,2.83,2.83,0,0,0-.59,1.87v6.52a2.15,2.15,0,0,1-.52,1.51,1.72,1.72,0,0,1-1.35.57,1.75,1.75,0,0,1-1.35-.57,2.15,2.15,0,0,1-.52-1.51V26.34a2.83,2.83,0,0,0-.58-1.87,2.28,2.28,0,0,0-3.29,0,3,3,0,0,0-.52,1.87v6.52a2.15,2.15,0,0,1-.52,1.51,1.88,1.88,0,0,1-2.7,0,2.15,2.15,0,0,1-.52-1.51Z" fill="#231f20"/><path d="M172.68,24.08h0a2.5,2.5,0,0,0-1.34.35,3.07,3.07,0,0,0-.93.9,4.07,4.07,0,0,0-.53,1.22,5.67,5.67,0,0,0-.17,1.35,4.84,4.84,0,0,0,.19,1.35,4,4,0,0,0,.54,1.21,3.06,3.06,0,0,0,.92.87,2.56,2.56,0,0,0,1.32.33,2.52,2.52,0,0,0,1.31-.33,3.06,3.06,0,0,0,.92-.87,4.31,4.31,0,0,0,.55-1.21,5.22,5.22,0,0,0,.18-1.35,5.67,5.67,0,0,0-.17-1.35,4.07,4.07,0,0,0-.53-1.22,3,3,0,0,0-.93-.9,2.49,2.49,0,0,0-1.33-.35m0-3.43a6.12,6.12,0,0,1,2.71.6,6.71,6.71,0,0,1,2.12,1.6,7.22,7.22,0,0,1,1.37,2.31,7.69,7.69,0,0,1,.5,2.74,7.93,7.93,0,0,1-.48,2.76,6.9,6.9,0,0,1-1.37,2.3,6.41,6.41,0,0,1-2.11,1.56,6.89,6.89,0,0,1-5.49,0A6.41,6.41,0,0,1,167.82,33a6.9,6.9,0,0,1-1.37-2.3A7.93,7.93,0,0,1,166,27.9a7.69,7.69,0,0,1,.5-2.74,7.22,7.22,0,0,1,1.37-2.31,6.71,6.71,0,0,1,2.12-1.6A6.13,6.13,0,0,1,172.68,20.65Z" fill="#231f20"/><path d="M190.26,23.35a1.74,1.74,0,0,1-.43,1.16,1.36,1.36,0,0,1-1.1.51,1.79,1.79,0,0,1-.65-.17l-.83-.38a9.35,9.35,0,0,0-.92-.38,2.93,2.93,0,0,0-1-.17,1.64,1.64,0,0,0-.9.25.88.88,0,0,0-.37.79.86.86,0,0,0,.48.74,7.46,7.46,0,0,0,1.2.59l1.56.61a7.72,7.72,0,0,1,1.56.82,4.46,4.46,0,0,1,1.21,1.2,3.13,3.13,0,0,1,.48,1.78,4,4,0,0,1-.38,1.74,3.94,3.94,0,0,1-1.08,1.39,5.28,5.28,0,0,1-1.67.93,6.83,6.83,0,0,1-2.2.33,7.72,7.72,0,0,1-1.7-.21,7.11,7.11,0,0,1-1.7-.59,4.75,4.75,0,0,1-1.3-.93,1.63,1.63,0,0,1-.52-1.15,1.46,1.46,0,0,1,.11-.49,1.89,1.89,0,0,1,.31-.55,2.11,2.11,0,0,1,.5-.44,1.31,1.31,0,0,1,.69-.18,2.35,2.35,0,0,1,1,.19c.28.13.56.28.84.44a5.93,5.93,0,0,0,.91.45,3.1,3.1,0,0,0,1.14.19,1.82,1.82,0,0,0,1.17-.27,1,1,0,0,0,.31-.79.86.86,0,0,0-.48-.72,7.5,7.5,0,0,0-1.2-.58l-1.56-.61a7.72,7.72,0,0,1-1.56-.82A4.39,4.39,0,0,1,181,26.81a3.21,3.21,0,0,1-.48-1.79,4.08,4.08,0,0,1,.38-1.78,4.15,4.15,0,0,1,1-1.38,4.72,4.72,0,0,1,1.6-.9,6.24,6.24,0,0,1,2-.31,7.85,7.85,0,0,1,1.52.17,6.76,6.76,0,0,1,1.52.49,3.87,3.87,0,0,1,1.16.83,1.69,1.69,0,0,1,.47,1.21" fill="#231f20"/><path d="M9.89,33.44H5A13.22,13.22,0,0,0,18.18,46.27h.46v-5h-.36a8.28,8.28,0,0,1-8.39-7.85" fill="#ec433d"/><path d="M42.14,18.64h4.92A13.22,13.22,0,0,0,33.89,5.81h-.45v5h.31a8.27,8.27,0,0,1,8.39,7.83" fill="#ec433d"/><path d="M38,18.64h2.34a6.45,6.45,0,0,0-6.56-6h-.31V18l.47,0a14.28,14.28,0,0,1,4.06.58" fill="#ec433d"/><path d="M14.13,33.44h-2.4a6.43,6.43,0,0,0,6.55,6h.36V34l-.47,0a14.25,14.25,0,0,1-4-.58" fill="#ec433d"/><path d="M48.63,32h3.45V20.06H41.46a14.57,14.57,0,0,1,7.17,12" fill="#00a69d"/><path d="M20.06,18.07l12,0V0H20.06Z" fill="#00a69d"/><path d="M5.37,26.72l-.08-.14a14.68,14.68,0,0,1-1.84-6.52H0V32H10.62a14.47,14.47,0,0,1-5.25-5.29" fill="#00a69d"/><path d="M32,34,20.06,34v18H32Z" fill="#00a69d"/><path d="M37.9,20.06a12.93,12.93,0,0,0-4-.63H32.24l-12.64,0h-1V12.64h-.36a6.59,6.59,0,0,0-6,3.72,5.89,5.89,0,0,0-.57,2.54v.15a6.31,6.31,0,0,0,.07.76,6.5,6.5,0,0,0,6.49,5.34l15.47,0a8.29,8.29,0,0,1,8.33,7.09,7.91,7.91,0,0,1,.06.84v.15a7.86,7.86,0,0,1-.54,2.87,8.45,8.45,0,0,1-7.85,5.22h-.31v5h.45a13.22,13.22,0,0,0,13.17-13v-1A13.16,13.16,0,0,0,37.9,20.06" fill="#ec433d"/><path d="M5,19.84a13.13,13.13,0,0,0,1.69,6.09v0a.24.24,0,0,0,0,.07,13.16,13.16,0,0,0,7.43,6,12.92,12.92,0,0,0,4,.63l15,0h.22v6.83h.31a6.66,6.66,0,0,0,5.68-3.13,6,6,0,0,0,.88-3.13V33a6.13,6.13,0,0,0-.07-.76A6.51,6.51,0,0,0,33.75,27L18.29,27A8.29,8.29,0,0,1,10,19.87c0-.28,0-.57-.06-.85V18.9A7.84,7.84,0,0,1,10.45,16a8.22,8.22,0,0,1,3-3.72,8.48,8.48,0,0,1,4.79-1.46h.36v-5h-.46A13.2,13.2,0,0,0,5,18.72v1.12" fill="#ec433d"/><path d="M66.05,42.38h.44c.18,0,.37,0,.57,0l.6.09a3.46,3.46,0,0,1,.54.16q.14.06.15.12a.17.17,0,0,1,0,.14l-.07.34a.39.39,0,0,1-.06.11.18.18,0,0,1-.17,0c-.26,0-.57-.08-.93-.11a9.46,9.46,0,0,0-1.07-.06,2,2,0,0,0-1.11.27,1.71,1.71,0,0,0-.62.71A3,3,0,0,0,64,45.28,12.47,12.47,0,0,0,64,46.53a8.86,8.86,0,0,0,.07,1.17,3,3,0,0,0,.3,1,1.75,1.75,0,0,0,.63.69,2,2,0,0,0,1.07.26,8.74,8.74,0,0,0,1-.06l.94-.11q.13,0,.18,0a.6.6,0,0,1,.06.11l.06.32a.27.27,0,0,1,0,.15s-.06.08-.14.11a2.68,2.68,0,0,1-.52.16l-.6.09-.59.06h-.45a3.18,3.18,0,0,1-1.55-.33,2.46,2.46,0,0,1-.93-.88A3.64,3.64,0,0,1,63.1,48,9.15,9.15,0,0,1,63,46.53,9.8,9.8,0,0,1,63.1,45a3.93,3.93,0,0,1,.44-1.33,2.59,2.59,0,0,1,.93-.93,3.06,3.06,0,0,1,1.58-.35" fill="#231f20"/><path d="M73.26,47.48h0a6.9,6.9,0,0,0-.06-1,1.66,1.66,0,0,0-.24-.68,1.08,1.08,0,0,0-.48-.41,2,2,0,0,0-.8-.14,1.76,1.76,0,0,0-.75.14,1,1,0,0,0-.46.42,1.82,1.82,0,0,0-.23.68,6.65,6.65,0,0,0-.06,1,6.75,6.75,0,0,0,.06,1,1.82,1.82,0,0,0,.23.68,1,1,0,0,0,.46.41,1.76,1.76,0,0,0,.75.14,2,2,0,0,0,.8-.13,1,1,0,0,0,.48-.4,1.66,1.66,0,0,0,.24-.68,7.05,7.05,0,0,0,.06-1m.92-.08a10,10,0,0,1-.06,1.08,2.77,2.77,0,0,1-.3,1,2.07,2.07,0,0,1-.75.75,2.86,2.86,0,0,1-1.39.28,2.66,2.66,0,0,1-1.35-.28,2,2,0,0,1-.73-.74,2.76,2.76,0,0,1-.29-1,10.29,10.29,0,0,1,0-1.09,6.65,6.65,0,0,1,.07-.95,2.72,2.72,0,0,1,.32-1,2,2,0,0,1,.72-.74,2.47,2.47,0,0,1,1.31-.29,2.9,2.9,0,0,1,1.32.25,1.94,1.94,0,0,1,.76.68,2.41,2.41,0,0,1,.35.94A7.59,7.59,0,0,1,74.18,47.4Z" fill="#231f20"/><path d="M83.63,50.43h-.52a.18.18,0,0,1-.2-.21V46.61a5.27,5.27,0,0,0,0-.63,1.1,1.1,0,0,0-.15-.41.7.7,0,0,0-.29-.22,1.44,1.44,0,0,0-.46-.07,1.71,1.71,0,0,0-.47.08l-.52.19-.5.23-.4.2a1.25,1.25,0,0,1,0,.24c0,.11,0,.25,0,.41v3.59a.19.19,0,0,1-.21.21h-.53c-.13,0-.19-.07-.19-.21v-3.7a1.88,1.88,0,0,0-.18-.91.75.75,0,0,0-.73-.33,1.9,1.9,0,0,0-.44.07c-.16,0-.33.1-.5.17l-.51.22-.46.23v4.25a.18.18,0,0,1-.2.21h-.51c-.13,0-.19-.07-.19-.21V44.78c0-.14.06-.2.19-.2h.49c.15,0,.22.06.22.2v.41h0l.41-.24a5.39,5.39,0,0,1,.48-.25,4.72,4.72,0,0,1,.53-.18,2.22,2.22,0,0,1,.57-.07,2,2,0,0,1,1,.22,1.22,1.22,0,0,1,.52.64,7.77,7.77,0,0,1,1-.59,2.57,2.57,0,0,1,1.16-.27,2.3,2.3,0,0,1,.91.15,1.19,1.19,0,0,1,.52.44,1.77,1.77,0,0,1,.24.68,5.89,5.89,0,0,1,.06.88v3.61a.18.18,0,0,1-.2.21" fill="#231f20"/><path d="M89.18,47.58h0a6.52,6.52,0,0,0-.07-1.07,2.05,2.05,0,0,0-.22-.71,1,1,0,0,0-.41-.4,1.64,1.64,0,0,0-.63-.12,6.62,6.62,0,0,0-.84.07,7.57,7.57,0,0,0-.92.2v4c.23,0,.49.07.76.09l.79,0a3.06,3.06,0,0,0,.63-.06.91.91,0,0,0,.49-.29,1.42,1.42,0,0,0,.31-.64,4.7,4.7,0,0,0,.11-1.11m1-.12A7.4,7.4,0,0,1,90,48.78a2.46,2.46,0,0,1-.4,1,1.73,1.73,0,0,1-.76.59,2.92,2.92,0,0,1-1.19.21l-.58,0a6,6,0,0,1-.61-.06,4.85,4.85,0,0,1-.57-.09,2.56,2.56,0,0,1-.46-.12.36.36,0,0,1-.25-.21.84.84,0,0,1,0-.27V42.18a.25.25,0,0,1,0-.17s.08,0,.16,0h.5C86,42,86,42,86,42a.22.22,0,0,1,0,.16v2.64a5.15,5.15,0,0,1,1-.29,4.25,4.25,0,0,1,.74-.07,2.8,2.8,0,0,1,1.16.21,1.7,1.7,0,0,1,.72.6,2.69,2.69,0,0,1,.36.95A6.7,6.7,0,0,1,90.14,47.46Z" fill="#231f20"/><path d="M92.5,50.22h0a.18.18,0,0,1-.2.21h-.49a.19.19,0,0,1-.21-.21V44.78c0-.09,0-.14.05-.17a.35.35,0,0,1,.16,0h.49a.18.18,0,0,1,.2.2ZM92.57,43a.78.78,0,0,1-.09.39c-.06.1-.2.15-.43.15s-.38,0-.43-.16a.76.76,0,0,1-.08-.38.62.62,0,0,1,.1-.37c.07-.1.2-.14.41-.14s.36,0,.42.13A.63.63,0,0,1,92.57,43Z" fill="#231f20"/><path d="M98.64,50.43h-.51a.18.18,0,0,1-.2-.21V46.67a4.12,4.12,0,0,0,0-.68.94.94,0,0,0-.16-.43.73.73,0,0,0-.3-.22,1.9,1.9,0,0,0-.46-.06,1.72,1.72,0,0,0-.51.09l-.57.19c-.2.07-.38.15-.54.22L95,46v4.25c0,.14-.07.21-.22.21h-.49c-.13,0-.19-.07-.19-.21V44.78c0-.14.06-.2.19-.2h.49a.37.37,0,0,1,.17,0,.23.23,0,0,1,0,.17v.43h0l.37-.22a4,4,0,0,1,.51-.26,5.84,5.84,0,0,1,.59-.2,2.34,2.34,0,0,1,.64-.08,2.19,2.19,0,0,1,.93.16,1.28,1.28,0,0,1,.53.47,1.81,1.81,0,0,1,.23.7,6.19,6.19,0,0,1,0,.89v3.54a.19.19,0,0,1-.21.21" fill="#231f20"/><path d="M101.32,50.22h0a.18.18,0,0,1-.2.21h-.49a.19.19,0,0,1-.21-.21V44.78c0-.09,0-.14,0-.17a.35.35,0,0,1,.16,0h.49a.18.18,0,0,1,.2.2Zm.07-7.21a.78.78,0,0,1-.09.39c-.06.1-.2.15-.43.15s-.37,0-.43-.16a.76.76,0,0,1-.08-.38.62.62,0,0,1,.1-.37c.07-.1.2-.14.41-.14s.36,0,.42.13A.63.63,0,0,1,101.39,43Z" fill="#231f20"/><path d="M107.46,50.43H107a.18.18,0,0,1-.2-.21V46.67a3.25,3.25,0,0,0-.05-.68.94.94,0,0,0-.16-.43.67.67,0,0,0-.3-.22,1.9,1.9,0,0,0-.46-.06,1.77,1.77,0,0,0-.51.09l-.57.19c-.2.07-.38.15-.54.22l-.39.19v4.25c0,.14-.07.21-.22.21h-.49c-.13,0-.19-.07-.19-.21V44.78c0-.14.06-.2.19-.2h.49a.37.37,0,0,1,.17,0,.23.23,0,0,1,0,.17v.43h0l.37-.22a4,4,0,0,1,.51-.26,5.27,5.27,0,0,1,.6-.2,2.22,2.22,0,0,1,.63-.08,2.16,2.16,0,0,1,.93.16,1.28,1.28,0,0,1,.53.47,1.81,1.81,0,0,1,.23.7,6.19,6.19,0,0,1,0,.89v3.54a.19.19,0,0,1-.21.21" fill="#231f20"/><path d="M109.89,47.42h0a6.44,6.44,0,0,0,.07,1.07,2,2,0,0,0,.23.71,1,1,0,0,0,.42.4,1.43,1.43,0,0,0,.62.12,6.82,6.82,0,0,0,.81-.07,7.21,7.21,0,0,0,.92-.21v-4l-.75-.09a7.09,7.09,0,0,0-.79,0,2.35,2.35,0,0,0-.6.07,1,1,0,0,0-.5.3,1.49,1.49,0,0,0-.32.63,4.22,4.22,0,0,0-.11,1.11m1.5-3a5.72,5.72,0,0,1,.58,0,5.61,5.61,0,0,1,.59.06,4.85,4.85,0,0,1,.55.09l.48.11a.34.34,0,0,1,.25.21.91.91,0,0,1,0,.27v5.23a6.06,6.06,0,0,1-.07.89,1.47,1.47,0,0,1-1,1.15,3.68,3.68,0,0,1-1.22.16h-.49l-.53,0a4,4,0,0,1-.5-.09,2.54,2.54,0,0,1-.44-.13c-.08,0-.12-.07-.14-.12a.23.23,0,0,1,0-.14l0-.26a.14.14,0,0,1,.1-.13.33.33,0,0,1,.2,0c.26,0,.54.06.85.08s.6,0,.84,0a3.44,3.44,0,0,0,.7-.06,1.15,1.15,0,0,0,.43-.21.83.83,0,0,0,.23-.37,2.09,2.09,0,0,0,.06-.53v-.48a6.51,6.51,0,0,1-1,.28,4.15,4.15,0,0,1-.73.08,2.72,2.72,0,0,1-1.15-.21,1.79,1.79,0,0,1-.72-.61,2.45,2.45,0,0,1-.36-.95,6.65,6.65,0,0,1-.11-1.24,6.32,6.32,0,0,1,.12-1.3,2.52,2.52,0,0,1,.41-1,1.89,1.89,0,0,1,.76-.6A2.94,2.94,0,0,1,111.39,44.46Z" fill="#231f20"/><path d="M122.55,48.75a1.8,1.8,0,0,1-.18.84,1.65,1.65,0,0,1-.51.54,2.11,2.11,0,0,1-.72.3,3.86,3.86,0,0,1-.84.09h-.48a4.07,4.07,0,0,1-.49,0l-.47-.08a2.54,2.54,0,0,1-.39-.13.22.22,0,0,1-.14-.25l0-.25a.19.19,0,0,1,.09-.14.5.5,0,0,1,.18,0l.41,0,.47,0,.44,0h.37a1.72,1.72,0,0,0,1-.21.78.78,0,0,0,.29-.67,1.4,1.4,0,0,0,0-.44.53.53,0,0,0-.18-.28A.86.86,0,0,0,121,48l-.59-.12a6.33,6.33,0,0,1-.78-.16,2.24,2.24,0,0,1-.67-.27,1.38,1.38,0,0,1-.46-.47,1.45,1.45,0,0,1-.18-.76,1.57,1.57,0,0,1,.56-1.29,2.44,2.44,0,0,1,1.53-.43h.41l.48,0,.48.08a3.88,3.88,0,0,1,.44.13.2.2,0,0,1,.12.25l0,.29a.16.16,0,0,1-.1.12.48.48,0,0,1-.21,0l-.78-.07a7.47,7.47,0,0,0-.8,0,1.42,1.42,0,0,0-.91.21.83.83,0,0,0-.24.67.9.9,0,0,0,.06.36.53.53,0,0,0,.2.22,1.61,1.61,0,0,0,.38.14l.6.11c.27,0,.52.09.77.15a2,2,0,0,1,.66.28,1.39,1.39,0,0,1,.45.51,1.65,1.65,0,0,1,.17.83" fill="#231f20"/><path d="M127.85,50.25a2.93,2.93,0,0,1-.85.21,8.24,8.24,0,0,1-1,.06,2.85,2.85,0,0,1-1.27-.24,1.74,1.74,0,0,1-.73-.66,2.34,2.34,0,0,1-.34-1,8.91,8.91,0,0,1-.08-1.19,8.2,8.2,0,0,1,.08-1.12,2.34,2.34,0,0,1,.34-1,1.83,1.83,0,0,1,.73-.67,2.71,2.71,0,0,1,1.27-.25h.42l.48,0,.49.08a3.11,3.11,0,0,1,.43.14.19.19,0,0,1,.12.11.38.38,0,0,1,0,.15l0,.27a.14.14,0,0,1-.11.12.44.44,0,0,1-.2,0l-.82-.07c-.3,0-.56,0-.78,0a1.69,1.69,0,0,0-.68.12,1,1,0,0,0-.44.36,1.65,1.65,0,0,0-.23.67,5.9,5.9,0,0,0-.08,1,6.49,6.49,0,0,0,.08,1.09,1.56,1.56,0,0,0,.24.69.93.93,0,0,0,.44.37,1.92,1.92,0,0,0,.67.11l.36,0,.43,0,.45,0,.41,0a.31.31,0,0,1,.17,0,.15.15,0,0,1,.09.14l0,.26a.21.21,0,0,1-.13.25" fill="#231f20"/><path d="M130,50.22h0c0,.14-.06.21-.19.21h-.49c-.15,0-.22-.07-.22-.21V44.78a.19.19,0,0,1,.06-.17.32.32,0,0,1,.16,0h.49c.13,0,.19.06.19.2Zm.08-7.21a.78.78,0,0,1-.09.39c-.06.1-.21.15-.43.15s-.38,0-.43-.16a.76.76,0,0,1-.09-.38.7.7,0,0,1,.1-.37c.07-.1.21-.14.42-.14s.36,0,.42.13A.71.71,0,0,1,130.09,43Z" fill="#231f20"/><path d="M135.38,47h0a3.35,3.35,0,0,0,0-.63,1.77,1.77,0,0,0-.21-.57,1.09,1.09,0,0,0-.44-.41,1.69,1.69,0,0,0-.77-.16,1.63,1.63,0,0,0-.67.13,1.09,1.09,0,0,0-.44.35,1.59,1.59,0,0,0-.25.56,3.74,3.74,0,0,0-.11.73Zm1,.07a.94.94,0,0,1-.09.49.46.46,0,0,1-.44.2h-3.39a4.32,4.32,0,0,0,.1.9,1.21,1.21,0,0,0,.27.58,1,1,0,0,0,.49.31,2.45,2.45,0,0,0,.71.09h.41l.46,0,.44,0,.37-.05a.33.33,0,0,1,.18,0s.07.07.09.14l0,.27a.21.21,0,0,1-.13.25,2.49,2.49,0,0,1-.41.13,3.84,3.84,0,0,1-.51.1,4.63,4.63,0,0,1-.52.07l-.49,0a2.82,2.82,0,0,1-1.31-.26,1.81,1.81,0,0,1-.74-.68,2.48,2.48,0,0,1-.33-1,8.2,8.2,0,0,1-.08-1.12,7,7,0,0,1,.07-1,2.88,2.88,0,0,1,.33-1,2.23,2.23,0,0,1,.73-.77,2.37,2.37,0,0,1,1.31-.31,2.9,2.9,0,0,1,1.24.22,2.09,2.09,0,0,1,.73.6,2.25,2.25,0,0,1,.34.86A7.79,7.79,0,0,1,136.36,47.11Z" fill="#231f20"/><path d="M142.07,50.43h-.51a.18.18,0,0,1-.2-.21V46.67a4.12,4.12,0,0,0-.05-.68.94.94,0,0,0-.16-.43.73.73,0,0,0-.3-.22,2,2,0,0,0-.46-.06,1.72,1.72,0,0,0-.51.09l-.58.19-.54.22-.38.19v4.25c0,.14-.07.21-.22.21h-.49c-.13,0-.19-.07-.19-.21V44.78c0-.14.06-.2.19-.2h.49a.3.3,0,0,1,.16,0,.19.19,0,0,1,.06.17v.43h0l.37-.22a4,4,0,0,1,.51-.26,5.84,5.84,0,0,1,.59-.2,2.29,2.29,0,0,1,.64-.08,2.19,2.19,0,0,1,.93.16,1.25,1.25,0,0,1,.52.47,1.66,1.66,0,0,1,.24.7,8.08,8.08,0,0,1,.05.89v3.54a.19.19,0,0,1-.21.21" fill="#231f20"/><path d="M147.73,50.25a3,3,0,0,1-.85.21,8.27,8.27,0,0,1-1,.06,2.85,2.85,0,0,1-1.27-.24,1.8,1.8,0,0,1-.73-.66,2.66,2.66,0,0,1-.34-1,9,9,0,0,1-.07-1.19,8.22,8.22,0,0,1,.07-1.12,2.67,2.67,0,0,1,.34-1,1.89,1.89,0,0,1,.73-.67,2.71,2.71,0,0,1,1.27-.25h.42l.49,0,.49.08a3.62,3.62,0,0,1,.43.14c.06,0,.1.06.11.11a.26.26,0,0,1,0,.15l-.05.27a.14.14,0,0,1-.11.12.44.44,0,0,1-.2,0l-.82-.07c-.31,0-.56,0-.78,0a1.69,1.69,0,0,0-.68.12.87.87,0,0,0-.44.36,1.81,1.81,0,0,0-.24.67,6,6,0,0,0-.07,1,6.63,6.63,0,0,0,.07,1.09,1.85,1.85,0,0,0,.24.69.91.91,0,0,0,.45.37,1.88,1.88,0,0,0,.67.11l.36,0,.43,0,.45,0,.41,0a.31.31,0,0,1,.17,0,.17.17,0,0,1,.09.14l.05.26a.22.22,0,0,1-.13.25" fill="#231f20"/><path d="M152.55,47h0a3.36,3.36,0,0,0-.06-.63,1.4,1.4,0,0,0-.21-.57,1.09,1.09,0,0,0-.44-.41,1.69,1.69,0,0,0-.77-.16,1.63,1.63,0,0,0-.67.13,1.09,1.09,0,0,0-.44.35,1.59,1.59,0,0,0-.25.56,3.74,3.74,0,0,0-.11.73Zm1,.07a.94.94,0,0,1-.09.49.46.46,0,0,1-.44.2H149.6a4.32,4.32,0,0,0,.1.9,1.3,1.3,0,0,0,.27.58,1,1,0,0,0,.49.31,2.5,2.5,0,0,0,.71.09h.41l.46,0,.44,0,.37-.05a.33.33,0,0,1,.18,0,.16.16,0,0,1,.09.14l0,.27a.21.21,0,0,1-.13.25,2.49,2.49,0,0,1-.41.13,3.84,3.84,0,0,1-.51.1,4.63,4.63,0,0,1-.52.07l-.49,0a2.82,2.82,0,0,1-1.31-.26,1.81,1.81,0,0,1-.74-.68,2.48,2.48,0,0,1-.33-1,8.2,8.2,0,0,1-.08-1.12,9,9,0,0,1,.07-1,2.88,2.88,0,0,1,.33-1,2.23,2.23,0,0,1,.73-.77,2.37,2.37,0,0,1,1.31-.31,2.9,2.9,0,0,1,1.24.22,2.09,2.09,0,0,1,.73.6,2.25,2.25,0,0,1,.34.86A7.79,7.79,0,0,1,153.52,47.11Z" fill="#231f20"/><path d="M161.67,43.93h0a.79.79,0,0,0-.26-.6.87.87,0,0,0-.61-.23.79.79,0,0,0-.38.09.72.72,0,0,0-.26.23,1,1,0,0,0-.14.3,1.11,1.11,0,0,0-.05.3,1.47,1.47,0,0,0,.13.59,4.17,4.17,0,0,0,.38.65,4.39,4.39,0,0,0,.84-.57,1,1,0,0,0,.35-.76m.73,5.19h0q-.3-.28-.63-.66l-.63-.74q-.3-.37-.57-.75c-.17-.25-.33-.47-.45-.66a3.64,3.64,0,0,0-1.12.89,1.7,1.7,0,0,0-.42,1.12,1.62,1.62,0,0,0,.13.7,1.1,1.1,0,0,0,.37.45,1.51,1.51,0,0,0,.54.26,2.39,2.39,0,0,0,.66.08,3.19,3.19,0,0,0,1-.17A4.45,4.45,0,0,0,162.4,49.12Zm2.73,1.81A.34.34,0,0,1,165,51a.16.16,0,0,1-.16,0,4.41,4.41,0,0,1-.42-.22l-.49-.33-.51-.38a4.51,4.51,0,0,1-.45-.39,5.27,5.27,0,0,1-1.3.65,4.29,4.29,0,0,1-1.34.23,3.66,3.66,0,0,1-1-.13,2.27,2.27,0,0,1-.83-.39,2,2,0,0,1-.56-.69,2.17,2.17,0,0,1-.21-1,2.38,2.38,0,0,1,.52-1.5,4.68,4.68,0,0,1,1.44-1.19,3.72,3.72,0,0,1-.46-.85,2.3,2.3,0,0,1-.16-.73,2,2,0,0,1,.12-.68,1.82,1.82,0,0,1,.34-.55,1.66,1.66,0,0,1,.55-.37,1.81,1.81,0,0,1,.72-.14,2.17,2.17,0,0,1,.69.11,1.45,1.45,0,0,1,.54.33,1.42,1.42,0,0,1,.35.49,1.39,1.39,0,0,1,.13.61,1.61,1.61,0,0,1-.44,1.14,5.36,5.36,0,0,1-1.18.91,15.75,15.75,0,0,0,1,1.39,16,16,0,0,0,1.15,1.28,5.27,5.27,0,0,0,.93-1.27,4.86,4.86,0,0,0,.5-1.63.33.33,0,0,1,.06-.12.22.22,0,0,1,.14,0H165c.08,0,.13,0,.15.08a.38.38,0,0,1,0,.16,4.9,4.9,0,0,1-.19,1,6.74,6.74,0,0,1-.39,1,6.92,6.92,0,0,1-.48.81,4.82,4.82,0,0,1-.52.61c.25.22.52.44.8.65a8.56,8.56,0,0,0,.84.55.24.24,0,0,1,.09.08.18.18,0,0,1,0,.13Z" fill="#231f20"/><path d="M173.68,50.25a2.86,2.86,0,0,1-.84.21,8.4,8.4,0,0,1-1,.06,2.85,2.85,0,0,1-1.27-.24,1.74,1.74,0,0,1-.73-.66,2.34,2.34,0,0,1-.34-1,8.91,8.91,0,0,1-.08-1.19,8.2,8.2,0,0,1,.08-1.12,2.34,2.34,0,0,1,.34-1,1.83,1.83,0,0,1,.73-.67,2.71,2.71,0,0,1,1.27-.25h.42l.49,0,.48.08a3.81,3.81,0,0,1,.44.14c.06,0,.1.06.11.11a.38.38,0,0,1,0,.15l0,.27a.16.16,0,0,1-.12.12.44.44,0,0,1-.2,0l-.82-.07c-.3,0-.56,0-.77,0a1.74,1.74,0,0,0-.69.12,1,1,0,0,0-.44.36,1.81,1.81,0,0,0-.23.67,6,6,0,0,0-.07,1,6.63,6.63,0,0,0,.07,1.09,1.85,1.85,0,0,0,.24.69.93.93,0,0,0,.44.37,1.94,1.94,0,0,0,.68.11l.35,0,.43,0,.45,0,.41,0a.35.35,0,0,1,.18,0,.19.19,0,0,1,.09.14l0,.26a.2.2,0,0,1-.13.25" fill="#231f20"/><path d="M178.48,47.6h-1.77a1.4,1.4,0,0,0-.88.26,1.18,1.18,0,0,0-.32,1,.9.9,0,0,0,.2.68,1.08,1.08,0,0,0,.72.18,2.27,2.27,0,0,0,.5-.06,2.85,2.85,0,0,0,.55-.16l.53-.22a5.09,5.09,0,0,0,.47-.24Zm0,2.18a9.1,9.1,0,0,1-1,.5,3.08,3.08,0,0,1-1.26.24A1.58,1.58,0,0,1,175,50.1a1.79,1.79,0,0,1-.38-1.23,2,2,0,0,1,.52-1.52,2.39,2.39,0,0,1,1.72-.5h1.66v-.41a1.13,1.13,0,0,0-.31-.92,1.83,1.83,0,0,0-1.1-.25h-.38l-.44,0-.45,0-.42,0c-.14,0-.22,0-.24-.11l-.08-.31a.16.16,0,0,1,0-.14.46.46,0,0,1,.18-.12,3,3,0,0,1,.43-.11l.53-.08.54,0h.49a3.56,3.56,0,0,1,1.15.15,1.55,1.55,0,0,1,.66.43,1.39,1.39,0,0,1,.28.68,5.75,5.75,0,0,1,.06.87v2.66a1.91,1.91,0,0,0,0,.28.26.26,0,0,0,.06.14.32.32,0,0,0,.13.07l.23,0c.13,0,.2.06.2.15v.3a.2.2,0,0,1,0,.14s-.09.06-.19.08a3.13,3.13,0,0,1-.42,0,1.06,1.06,0,0,1-.63-.16.81.81,0,0,1-.26-.54Z" fill="#231f20"/><path d="M184.08,45.4l-.53.13-.56.16-.5.15-.34.14v4.24c0,.14-.06.21-.2.21h-.53c-.13,0-.19-.07-.19-.21V44.78c0-.14.06-.2.19-.2h.52c.14,0,.21.06.21.2v.49l0,0a1.57,1.57,0,0,1,.33-.21l.46-.23a4.71,4.71,0,0,1,.52-.21l.49-.14a.23.23,0,0,1,.15,0,.38.38,0,0,1,.06.14l0,.51c0,.14,0,.22-.15.23" fill="#231f20"/><path d="M188.69,47h0a4.46,4.46,0,0,0-.05-.63,1.77,1.77,0,0,0-.21-.57,1.12,1.12,0,0,0-.45-.41,1.66,1.66,0,0,0-.77-.16,1.62,1.62,0,0,0-.66.13,1.09,1.09,0,0,0-.44.35,1.59,1.59,0,0,0-.25.56,3.11,3.11,0,0,0-.11.73Zm1,.07a1.05,1.05,0,0,1-.08.49.46.46,0,0,1-.44.2h-3.39a5.23,5.23,0,0,0,.09.9,1.31,1.31,0,0,0,.28.58,1,1,0,0,0,.49.31,2.41,2.41,0,0,0,.71.09h.41l.46,0,.44,0,.36-.05a.38.38,0,0,1,.19,0,.21.21,0,0,1,.09.14l0,.27a.2.2,0,0,1-.14.25,2.35,2.35,0,0,1-.4.13,3.84,3.84,0,0,1-.51.1,4.51,4.51,0,0,1-.53.07l-.48,0a2.82,2.82,0,0,1-1.31-.26,1.75,1.75,0,0,1-.74-.68,2.48,2.48,0,0,1-.33-1,6.87,6.87,0,0,1-.08-1.12,7,7,0,0,1,.07-1,3.08,3.08,0,0,1,.32-1,2.26,2.26,0,0,1,.74-.77,2.35,2.35,0,0,1,1.31-.31,2.93,2.93,0,0,1,1.24.22,2,2,0,0,1,.72.6,2.26,2.26,0,0,1,.35.86A6.26,6.26,0,0,1,189.66,47.11Z" fill="#231f20"/></svg>